<svg width="38" height="50" viewBox="0 0 38 50" fill="none" xmlns="http://www.w3.org/2000/svg">
<path d="M28.125 24.2188V26.9531C28.125 27.5977 27.5977 28.125 26.9531 28.125H10.5469C9.90234 28.125 9.375 27.5977 9.375 26.9531V24.2188C9.375 23.5742 9.90234 23.0469 10.5469 23.0469H26.9531C27.5977 23.0469 28.125 23.5742 28.125 24.2188ZM26.9531 31.25H10.5469C9.90234 31.25 9.375 31.7773 9.375 32.4219V35.1562C9.375 35.8008 9.90234 36.3281 10.5469 36.3281H26.9531C27.5977 36.3281 28.125 35.8008 28.125 35.1562V32.4219C28.125 31.7773 27.5977 31.25 26.9531 31.25ZM37.5 12.8809V45.3125C37.5 47.9004 35.4004 50 32.8125 50H4.6875C2.09961 50 0 47.9004 0 45.3125V4.6875C0 2.09961 2.09961 0 4.6875 0H24.6191C25.8594 0 27.0508 0.498047 27.9297 1.37695L36.123 9.57031C37.002 10.4395 37.5 11.6406 37.5 12.8809ZM25 5.06836V12.5H32.4316L25 5.06836ZM32.8125 45.3125V17.1875H22.6562C21.3574 17.1875 20.3125 16.1426 20.3125 14.8438V4.6875H4.6875V45.3125H32.8125Z" fill="white"/>
</svg>
