<svg width="38" height="50" viewBox="0 0 38 50" fill="none" xmlns="http://www.w3.org/2000/svg">
<path d="M32.8125 6.25H25C25 2.80273 22.1973 0 18.75 0C15.3027 0 12.5 2.80273 12.5 6.25H4.6875C2.09961 6.25 0 8.34961 0 10.9375V45.3125C0 47.9004 2.09961 50 4.6875 50H32.8125C35.4004 50 37.5 47.9004 37.5 45.3125V10.9375C37.5 8.34961 35.4004 6.25 32.8125 6.25ZM18.75 3.90625C20.0488 3.90625 21.0938 4.95117 21.0938 6.25C21.0938 7.54883 20.0488 8.59375 18.75 8.59375C17.4512 8.59375 16.4062 7.54883 16.4062 6.25C16.4062 4.95117 17.4512 3.90625 18.75 3.90625ZM28.125 33.5938C28.125 34.0234 27.7734 34.375 27.3438 34.375H21.875V39.8438C21.875 40.2734 21.5234 40.625 21.0938 40.625H16.4062C15.9766 40.625 15.625 40.2734 15.625 39.8438V34.375H10.1562C9.72656 34.375 9.375 34.0234 9.375 33.5938V28.9062C9.375 28.4766 9.72656 28.125 10.1562 28.125H15.625V22.6562C15.625 22.2266 15.9766 21.875 16.4062 21.875H21.0938C21.5234 21.875 21.875 22.2266 21.875 22.6562V28.125H27.3438C27.7734 28.125 28.125 28.4766 28.125 28.9062V33.5938ZM28.125 14.8438C28.125 15.2734 27.7734 15.625 27.3438 15.625H10.1562C9.72656 15.625 9.375 15.2734 9.375 14.8438V13.2812C9.375 12.8516 9.72656 12.5 10.1562 12.5H27.3438C27.7734 12.5 28.125 12.8516 28.125 13.2812V14.8438Z" fill="white"/>
</svg>
