<svg width="51" height="50" viewBox="0 0 51 50" fill="none" xmlns="http://www.w3.org/2000/svg">
<path d="M43.6645 10.9354C40.3245 10.9842 37.5802 13.709 37.5118 17.049C37.463 19.4222 38.7326 21.5024 40.637 22.5962V33.5929C40.637 39.1889 35.7344 43.7497 29.6989 43.7497C23.8392 43.7497 19.0342 39.4428 18.7706 34.0616C25.8803 32.5967 31.2517 26.2878 31.2517 18.7483V3.57168C31.2517 2.45834 30.4606 1.49149 29.3668 1.27664L23.2239 0.046102C21.9543 -0.207818 20.7238 0.612539 20.4699 1.88214L20.1574 3.41543C19.9034 4.68503 20.7238 5.91556 21.9934 6.16948L24.9916 6.76522V18.6213C24.9916 23.7876 20.8703 28.0652 15.704 28.114C10.4889 28.1629 6.24058 23.9439 6.24058 18.7385V6.77499L9.23879 6.17925C10.5084 5.92533 11.3287 4.69479 11.0748 3.42519L10.7721 1.89191C10.5182 0.622305 9.28762 -0.198052 8.01802 0.0558682L1.88487 1.26687C0.791059 1.49149 0 2.44858 0 3.57168V18.7483C0 26.2975 5.38115 32.6162 12.5104 34.0616C12.7644 42.8902 20.3722 50 29.6891 50C39.1623 50 46.8776 42.6363 46.8776 33.5929V22.5962C48.7429 21.5121 50.0027 19.5003 50.0027 17.1857C50.0027 13.6992 47.151 10.8865 43.6645 10.9354ZM43.7524 18.7483C42.893 18.7483 42.1898 18.0451 42.1898 17.1857C42.1898 16.3263 42.893 15.6231 43.7524 15.6231C44.6118 15.6231 45.315 16.3263 45.315 17.1857C45.315 18.0451 44.6118 18.7483 43.7524 18.7483Z" fill="white"/>
</svg>
